<svg xmlns="http://www.w3.org/2000/svg" version="1.1" xmlns:xlink="http://www.w3.org/1999/xlink" xmlns:svgjs="http://svgjs.dev/svgjs" width="1920" height="1080" preserveAspectRatio="none" viewBox="0 0 1920 1080"><g mask="url(&quot;#SvgjsMask1016&quot;)" fill="none"><rect width="1920" height="1080" x="0" y="0" fill="#0e2a47"></rect><path d="M0,588.784C122.041,586.35,246.013,606.14,357.271,555.925C478.276,501.31,585.461,413.005,648.42,296.124C713.522,175.265,728.231,33.948,711.858,-102.35C695.229,-240.779,664.862,-395.035,555.071,-480.971C447.522,-565.152,289.241,-500.383,157.467,-536.283C29.566,-571.127,-71.938,-713.93,-201.768,-687.158C-330.939,-660.522,-385.104,-508.18,-469.662,-406.964C-552.492,-307.815,-665.571,-225.914,-692.635,-99.586C-720.349,29.775,-675.136,162.93,-617.237,281.883C-560.331,398.797,-482.978,512.469,-366.548,570.36C-254.74,625.953,-124.841,591.274,0,588.784" fill="#0b2239"></path><path d="M1920 1745.095C2040.085 1721.618 2108.694 1598.2640000000001 2218.889 1545.0810000000001 2351.57 1481.046 2543.063 1523.691 2628.067 1403.363 2711.277 1285.574 2646.574 1121.021 2618.373 979.5889999999999 2591.506 844.848 2576.9790000000003 689.152 2468.772 604.486 2362.25 521.139 2205.48 587.53 2074.448 553.998 1950.202 522.203 1847.743 378.70399999999995 1724.448 414.01 1601.291 449.27700000000004 1590.175 624.8589999999999 1502.105 717.892 1407.9859999999999 817.315 1242.713 847.9259999999999 1192.943 975.465 1141.255 1107.917 1177.307 1262.9180000000001 1239.5259999999998 1390.762 1300.978 1517.029 1410.66 1613.884 1535.213 1678.74 1653.042 1740.095 1789.622 1770.5839999999998 1920 1745.095" fill="#113255"></path></g><defs><mask id="SvgjsMask1016"><rect width="1920" height="1080" fill="#ffffff"></rect></mask></defs></svg>