<svg xmlns="http://www.w3.org/2000/svg" version="1.1" xmlns:xlink="http://www.w3.org/1999/xlink" xmlns:svgjs="http://svgjs.dev/svgjs" width="1920" height="1080" preserveAspectRatio="none" viewBox="0 0 1920 1080"><g mask="url(&quot;#SvgjsMask1021&quot;)" fill="none"><rect width="1920" height="1080" x="0" y="0" fill="#0e2a47"></rect><path d="M 0,246 C 55,297.2 165,526.6 275,502 C 385,477.4 440,163.8 550,123 C 660,82.2 715,292 825,298 C 935,304 990,107.6 1100,153 C 1210,198.4 1265,522.4 1375,525 C 1485,527.6 1541,190.4 1650,166 C 1759,141.6 1866,355.6 1920,403L1920 1080L0 1080z" fill="#184a7e"></path><path d="M 0,744 C 76.8,792.4 230.4,1019.4 384,986 C 537.6,952.6 614.4,605.4 768,577 C 921.6,548.6 998.4,817.4 1152,844 C 1305.6,870.6 1382.4,701.2 1536,710 C 1689.6,718.8 1843.2,852.4 1920,888L1920 1080L0 1080z" fill="#2264ab"></path></g><defs><mask id="SvgjsMask1021"><rect width="1920" height="1080" fill="#ffffff"></rect></mask></defs></svg>